<svg width="375" height="382" viewBox="0 0 375 382" fill="none" xmlns="http://www.w3.org/2000/svg">
<g opacity="0.8">
<path opacity="0.6" d="M642.409 -40.9695C594.879 -59.8955 485.333 -83.3875 422.309 60.4258C367.112 186.38 259.916 240.785 146 217C54.9999 198 -18.7745 118.237 -33.0001 94" stroke="#00656B"/>
<path opacity="0.6" d="M632.454 -47.6689C584.923 -66.5948 475.377 -90.0868 412.354 53.7265C357.156 179.681 244.871 238.138 132.817 206.731C43.1735 181.605 -7.68832 116.849 -21.9138 92.6119" stroke="#00656B"/>
<path opacity="0.6" d="M622.498 -54.3682C574.967 -73.2941 465.421 -96.7861 402.398 47.0272C347.201 172.982 234.915 231.439 122.861 200.031C33.2177 174.906 -17.6441 90.1498 -31.8696 65.9126" stroke="#00656B"/>
</g>
</svg>
